<!DOCTYPE svg PUBLIC "-//W3C//DTD SVG 1.1//EN" "http://www.w3.org/Graphics/SVG/1.1/DTD/svg11.dtd">
<svg width="240.00" height="240.00" viewBox="0.00 0.00 1000.00 1000.00" xmlns="http://www.w3.org/2000/svg" xmlns:xlink="http://www.w3.org/1999/xlink">
<g stroke-linecap="round" id="레이어_1">
<path d="M225.10,532.00 C225.10,532.00 225.97,531.71 225.97,531.71 C225.97,531.71 226.26,530.84 226.26,530.84" fill="none" stroke="rgb(17, 17, 17)" stroke-width="8.00" stroke-opacity="1.00" stroke-linejoin="round"/>
<path d="M226.26,530.84 L280.21,693.86" fill="none" stroke="rgb(17, 17, 17)" stroke-width="8.00" stroke-opacity="1.00" stroke-linejoin="round"/>
<path d="M280.21,693.86 C280.21,693.86 280.21,693.28 280.21,693.28" fill="none" stroke="rgb(17, 17, 17)" stroke-width="8.00" stroke-opacity="1.00" stroke-linejoin="round"/>
<path d="M280.21,693.28 L356.21,569.71" fill="none" stroke="rgb(17, 17, 17)" stroke-width="8.00" stroke-opacity="1.00" stroke-linejoin="round"/>
<path d="M356.21,569.71" fill="none" stroke="rgb(17, 17, 17)" stroke-width="8.00" stroke-opacity="1.00" stroke-linejoin="round"/>
<path d="M356.21,569.71 L400.88,477.46" fill="none" stroke="rgb(17, 17, 17)" stroke-width="8.00" stroke-opacity="1.00" stroke-linejoin="round"/>
<path d="M400.88,477.46 C400.88,477.46 401.17,477.46 401.17,477.46 C401.17,477.46 401.46,476.88 401.46,476.88" fill="none" stroke="rgb(17, 17, 17)" stroke-width="8.00" stroke-opacity="1.00" stroke-linejoin="round"/>
<path d="M401.46,476.88 L428.15,428.15" fill="none" stroke="rgb(17, 17, 17)" stroke-width="8.00" stroke-opacity="1.00" stroke-linejoin="round"/>
<path d="M428.15,428.15 C428.15,428.15 427.57,428.15 427.57,428.15 C427.67,427.96 427.76,427.76 427.86,427.57 C427.96,427.38 428.05,427.18 428.15,426.99" fill="none" stroke="rgb(17, 17, 17)" stroke-width="8.00" stroke-opacity="1.00" stroke-linejoin="round"/>
<path d="M428.15,426.99 L447.88,382.32" fill="none" stroke="rgb(17, 17, 17)" stroke-width="8.00" stroke-opacity="1.00" stroke-linejoin="round"/>
<path d="M447.88,382.32" fill="none" stroke="rgb(17, 17, 17)" stroke-width="8.00" stroke-opacity="1.00" stroke-linejoin="round"/>
<path d="M356.79,570.87" fill="none" stroke="rgb(17, 17, 17)" stroke-width="8.00" stroke-opacity="1.00" stroke-linejoin="round"/>
<path d="M356.79,570.87 L298.20,539.54" fill="none" stroke="rgb(17, 17, 17)" stroke-width="8.00" stroke-opacity="1.00" stroke-linejoin="round"/>
<path d="M298.20,539.54" fill="none" stroke="rgb(17, 17, 17)" stroke-width="8.00" stroke-opacity="1.00" stroke-linejoin="round"/>
<path d="M298.20,539.54 L324.88,413.65" fill="none" stroke="rgb(17, 17, 17)" stroke-width="8.00" stroke-opacity="1.00" stroke-linejoin="round"/>
<path d="M324.88,413.65" fill="none" stroke="rgb(17, 17, 17)" stroke-width="8.00" stroke-opacity="1.00" stroke-linejoin="round"/>
<path d="M323.85,415.28" fill="none" stroke="rgb(17, 17, 17)" stroke-width="8.00" stroke-opacity="1.00" stroke-linejoin="round"/>
<path d="M323.85,415.28 L346.85,347.44" fill="none" stroke="rgb(17, 17, 17)" stroke-width="8.00" stroke-opacity="1.00" stroke-linejoin="round"/>
<path d="M346.85,347.44" fill="none" stroke="rgb(17, 17, 17)" stroke-width="8.00" stroke-opacity="1.00" stroke-linejoin="round"/>
<path d="M346.85,347.44 L366.91,290.22" fill="none" stroke="rgb(17, 17, 17)" stroke-width="8.00" stroke-opacity="1.00" stroke-linejoin="round"/>
<path d="M366.91,290.22" fill="none" stroke="rgb(17, 17, 17)" stroke-width="8.00" stroke-opacity="1.00" stroke-linejoin="round"/>
<path d="M295.53,534.43 C295.53,534.43 295.53,534.73 295.53,534.73 C295.53,534.73 296.12,535.02 296.12,535.02" fill="none" stroke="rgb(17, 17, 17)" stroke-width="8.00" stroke-opacity="1.00" stroke-linejoin="round"/>
<path d="M296.12,535.02 L256.50,519.18" fill="none" stroke="rgb(17, 17, 17)" stroke-width="8.00" stroke-opacity="1.00" stroke-linejoin="round"/>
<path d="M251.87,511.47 L249.87,505.89 L261.91,382.24" fill="none" stroke="rgb(17, 17, 17)" stroke-width="8.00" stroke-opacity="1.00" stroke-linejoin="round"/>
<path d="M261.91,382.24 C261.91,382.15 261.91,382.05 261.91,381.95 C261.91,381.85 261.91,381.75 261.91,381.65" fill="none" stroke="rgb(17, 17, 17)" stroke-width="8.00" stroke-opacity="1.00" stroke-linejoin="round"/>
<path d="M261.91,381.65 L283.14,303.79" fill="none" stroke="rgb(17, 17, 17)" stroke-width="8.00" stroke-opacity="1.00" stroke-linejoin="round"/>
<path d="M283.14,303.79" fill="none" stroke="rgb(17, 17, 17)" stroke-width="8.00" stroke-opacity="1.00" stroke-linejoin="round"/>
<path d="M283.14,303.79 L302.02,250.70" fill="none" stroke="rgb(17, 17, 17)" stroke-width="8.00" stroke-opacity="1.00" stroke-linejoin="round"/>
<path d="M302.02,250.70 C302.02,250.70 301.43,250.70 301.43,250.70" fill="none" stroke="rgb(17, 17, 17)" stroke-width="8.00" stroke-opacity="1.00" stroke-linejoin="round"/>
<path d="M225.92,529.71" fill="none" stroke="rgb(17, 17, 17)" stroke-width="8.00" stroke-opacity="1.00" stroke-linejoin="round"/>
<path d="M225.92,529.71 L219.80,506.66" fill="none" stroke="rgb(17, 17, 17)" stroke-width="8.00" stroke-opacity="1.00" stroke-linejoin="round"/>
<path d="M215.90,491.96 C215.90,491.96 215.90,492.55 215.90,492.55" fill="none" stroke="rgb(17, 17, 17)" stroke-width="8.00" stroke-opacity="1.00" stroke-linejoin="round"/>
<path d="M216.15,487.52 L221.80,376.34" fill="none" stroke="rgb(17, 17, 17)" stroke-width="8.00" stroke-opacity="1.00" stroke-linejoin="round"/>
<path d="M221.80,376.34 C221.89,376.34 221.99,376.34 222.09,376.34 C222.19,376.34 222.29,376.34 222.39,376.34" fill="none" stroke="rgb(17, 17, 17)" stroke-width="8.00" stroke-opacity="1.00" stroke-linejoin="round"/>
<path d="M222.39,376.34 L236.54,318.54" fill="none" stroke="rgb(17, 17, 17)" stroke-width="8.00" stroke-opacity="1.00" stroke-linejoin="round"/>
<path d="M236.54,318.54 C236.60,318.46 236.60,318.36 236.54,318.24 C236.48,318.13 236.29,317.83 235.95,317.36" fill="none" stroke="rgb(17, 17, 17)" stroke-width="8.00" stroke-opacity="1.00" stroke-linejoin="round"/>
<path d="M235.95,317.36 L249.52,269.58" fill="none" stroke="rgb(17, 17, 17)" stroke-width="8.00" stroke-opacity="1.00" stroke-linejoin="round"/>
<path d="M249.52,269.58 C249.52,269.58 248.93,269.58 248.93,269.58" fill="none" stroke="rgb(17, 17, 17)" stroke-width="8.00" stroke-opacity="1.00" stroke-linejoin="round"/>
<path d="M278.42,691.93 C278.42,691.93 279.01,691.34 279.01,691.34 C279.01,691.34 279.01,690.75 279.01,690.75" fill="none" stroke="rgb(17, 17, 17)" stroke-width="8.00" stroke-opacity="1.00" stroke-linejoin="round"/>
<path d="M279.01,690.75 L235.95,612.89" fill="none" stroke="rgb(17, 17, 17)" stroke-width="8.00" stroke-opacity="1.00" stroke-linejoin="round"/>
<path d="M235.95,612.89" fill="none" stroke="rgb(17, 17, 17)" stroke-width="8.00" stroke-opacity="1.00" stroke-linejoin="round"/>
<path d="M235.95,612.89 L183.65,538.72" fill="none" stroke="rgb(17, 17, 17)" stroke-width="8.00" stroke-opacity="1.00" stroke-linejoin="round"/>
<path d="M183.65,538.72" fill="none" stroke="rgb(17, 17, 17)" stroke-width="8.00" stroke-opacity="1.00" stroke-linejoin="round"/>
<path d="M183.65,538.72 L172.85,471.74" fill="none" stroke="rgb(17, 17, 17)" stroke-width="8.00" stroke-opacity="1.00" stroke-linejoin="round"/>
<path d="M172.85,471.74 C172.97,471.62 173.09,471.50 173.21,471.38 C173.33,471.26 173.45,471.14 173.57,471.02" fill="none" stroke="rgb(17, 17, 17)" stroke-width="8.00" stroke-opacity="1.00" stroke-linejoin="round"/>
<path d="M173.57,471.02 L197.34,414.84" fill="none" stroke="rgb(17, 17, 17)" stroke-width="8.00" stroke-opacity="1.00" stroke-linejoin="round"/>
<path d="M197.34,414.84" fill="none" stroke="rgb(17, 17, 17)" stroke-width="8.00" stroke-opacity="1.00" stroke-linejoin="round"/>
<path d="M837.21,570.53 C837.21,570.53 837.21,569.89 837.21,569.89" fill="none" stroke="rgb(17, 17, 17)" stroke-width="8.00" stroke-opacity="1.00" stroke-linejoin="round"/>
<path d="M837.21,569.89 L766.69,522.45" fill="none" stroke="rgb(17, 17, 17)" stroke-width="8.00" stroke-opacity="1.00" stroke-linejoin="round"/>
<path d="M766.69,522.45 C766.69,522.45 766.69,521.81 766.69,521.81" fill="none" stroke="rgb(17, 17, 17)" stroke-width="8.00" stroke-opacity="1.00" stroke-linejoin="round"/>
<path d="M766.69,521.81 L735.92,456.42" fill="none" stroke="rgb(17, 17, 17)" stroke-width="8.00" stroke-opacity="1.00" stroke-linejoin="round"/>
<path d="M735.92,456.42" fill="none" stroke="rgb(17, 17, 17)" stroke-width="8.00" stroke-opacity="1.00" stroke-linejoin="round"/>
<path d="M735.92,456.42 L705.79,412.83" fill="none" stroke="rgb(17, 17, 17)" stroke-width="8.00" stroke-opacity="1.00" stroke-linejoin="round"/>
<path d="M705.79,412.83" fill="none" stroke="rgb(17, 17, 17)" stroke-width="8.00" stroke-opacity="1.00" stroke-linejoin="round"/>
<path d="M705.79,412.83 L678.87,380.14" fill="none" stroke="rgb(17, 17, 17)" stroke-width="8.00" stroke-opacity="1.00" stroke-linejoin="round"/>
<path d="M678.87,380.14 C678.87,380.14 678.87,381.42 678.87,381.42" fill="none" stroke="rgb(17, 17, 17)" stroke-width="8.00" stroke-opacity="1.00" stroke-linejoin="round"/>
<path d="M674.38,447.45" fill="none" stroke="rgb(17, 17, 17)" stroke-width="8.00" stroke-opacity="1.00" stroke-linejoin="round"/>
<path d="M674.38,447.45 L709.64,440.40" fill="none" stroke="rgb(17, 17, 17)" stroke-width="8.00" stroke-opacity="1.00" stroke-linejoin="round"/>
<path d="M709.64,440.40 C709.85,440.18 710.06,439.97 710.28,439.76 C710.49,439.54 710.71,439.33 710.92,439.12" fill="none" stroke="rgb(17, 17, 17)" stroke-width="8.00" stroke-opacity="1.00" stroke-linejoin="round"/>
<path d="M710.92,439.12 L753.87,441.68" fill="none" stroke="rgb(17, 17, 17)" stroke-width="8.00" stroke-opacity="1.00" stroke-linejoin="round"/>
<path d="M753.87,441.68 C753.81,442.13 753.81,442.45 753.87,442.64 C753.93,442.83 754.15,443.15 754.51,443.60" fill="none" stroke="rgb(17, 17, 17)" stroke-width="8.00" stroke-opacity="1.00" stroke-linejoin="round"/>
<path d="M754.51,443.60 L810.28,491.04" fill="none" stroke="rgb(17, 17, 17)" stroke-width="8.00" stroke-opacity="1.00" stroke-linejoin="round"/>
<path d="M810.28,491.04" fill="none" stroke="rgb(17, 17, 17)" stroke-width="8.00" stroke-opacity="1.00" stroke-linejoin="round"/>
<path d="M810.28,491.04 L836.56,571.81" fill="none" stroke="rgb(17, 17, 17)" stroke-width="8.00" stroke-opacity="1.00" stroke-linejoin="round"/>
<path d="M836.56,571.81 C836.56,571.81 836.56,572.45 836.56,572.45" fill="none" stroke="rgb(17, 17, 17)" stroke-width="8.00" stroke-opacity="1.00" stroke-linejoin="round"/>
<path d="M839.13,566.68" fill="none" stroke="rgb(17, 17, 17)" stroke-width="8.00" stroke-opacity="1.00" stroke-linejoin="round"/>
<path d="M839.13,566.68 L826.31,446.81" fill="none" stroke="rgb(17, 17, 17)" stroke-width="8.00" stroke-opacity="1.00" stroke-linejoin="round"/>
<path d="M826.31,446.81" fill="none" stroke="rgb(17, 17, 17)" stroke-width="8.00" stroke-opacity="1.00" stroke-linejoin="round"/>
<path d="M826.31,446.81 L820.54,416.68" fill="none" stroke="rgb(17, 17, 17)" stroke-width="8.00" stroke-opacity="1.00" stroke-linejoin="round"/>
<path d="M820.54,416.68 C820.54,416.57 820.54,416.47 820.54,416.36 C820.54,416.25 820.54,416.15 820.54,416.04" fill="none" stroke="rgb(17, 17, 17)" stroke-width="8.00" stroke-opacity="1.00" stroke-linejoin="round"/>
<path d="M820.54,416.04 L803.87,400.65" fill="none" stroke="rgb(17, 17, 17)" stroke-width="8.00" stroke-opacity="1.00" stroke-linejoin="round"/>
<path d="M803.87,400.65" fill="none" stroke="rgb(17, 17, 17)" stroke-width="8.00" stroke-opacity="1.00" stroke-linejoin="round"/>
<path d="M803.87,400.65 L759.00,329.50" fill="none" stroke="rgb(17, 17, 17)" stroke-width="8.00" stroke-opacity="1.00" stroke-linejoin="round"/>
<path d="M759.00,329.50" fill="none" stroke="rgb(17, 17, 17)" stroke-width="8.00" stroke-opacity="1.00" stroke-linejoin="round"/>
<path d="M759.00,329.50 L725.02,295.52" fill="none" stroke="rgb(17, 17, 17)" stroke-width="8.00" stroke-opacity="1.00" stroke-linejoin="round"/>
<path d="M725.02,295.52" fill="none" stroke="rgb(17, 17, 17)" stroke-width="8.00" stroke-opacity="1.00" stroke-linejoin="round"/>
<path d="M725.02,295.52 L679.51,290.39" fill="none" stroke="rgb(17, 17, 17)" stroke-width="8.00" stroke-opacity="1.00" stroke-linejoin="round"/>
<path d="M679.51,290.39 C679.51,290.39 679.51,289.75 679.51,289.75 C679.51,289.75 678.23,289.11 678.23,289.11" fill="none" stroke="rgb(17, 17, 17)" stroke-width="8.00" stroke-opacity="1.00" stroke-linejoin="round"/>
<path d="M823.74,415.40" fill="none" stroke="rgb(17, 17, 17)" stroke-width="8.00" stroke-opacity="1.00" stroke-linejoin="round"/>
<path d="M805.15,399.37" fill="none" stroke="rgb(17, 17, 17)" stroke-width="8.00" stroke-opacity="1.00" stroke-linejoin="round"/>
<path d="M824.38,415.40" fill="none" stroke="rgb(17, 17, 17)" stroke-width="8.00" stroke-opacity="1.00" stroke-linejoin="round"/>
<path d="M827.59,450.01 C827.59,450.01 827.59,449.37 827.59,449.37" fill="none" stroke="rgb(17, 17, 17)" stroke-width="8.00" stroke-opacity="1.00" stroke-linejoin="round"/>
<path d="M827.59,449.37 L767.97,374.37" fill="none" stroke="rgb(17, 17, 17)" stroke-width="8.00" stroke-opacity="1.00" stroke-linejoin="round"/>
<path d="M767.97,374.37 C767.97,374.37 767.97,375.01 767.97,375.01 C767.97,375.01 767.97,374.37 767.97,374.37" fill="none" stroke="rgb(17, 17, 17)" stroke-width="8.00" stroke-opacity="1.00" stroke-linejoin="round"/>
<path d="M767.97,374.37 L710.92,362.83" fill="none" stroke="rgb(17, 17, 17)" stroke-width="8.00" stroke-opacity="1.00" stroke-linejoin="round"/>
<path d="M710.92,362.83 C710.92,362.83 710.92,362.19 710.92,362.19" fill="none" stroke="rgb(17, 17, 17)" stroke-width="8.00" stroke-opacity="1.00" stroke-linejoin="round"/>
<path d="M710.92,362.19 L667.97,354.50" fill="none" stroke="rgb(17, 17, 17)" stroke-width="8.00" stroke-opacity="1.00" stroke-linejoin="round"/>
<path d="M667.97,354.50 C667.97,354.39 667.97,354.28 667.97,354.18 C667.97,354.07 667.97,353.96 667.97,353.86" fill="none" stroke="rgb(17, 17, 17)" stroke-width="8.00" stroke-opacity="1.00" stroke-linejoin="round"/>
<path d="M252.24,517.11 C252.24,517.11 250.90,516.34 250.90,516.34" fill="none" stroke="rgb(17, 17, 17)" stroke-width="25.00" stroke-opacity="1.00" stroke-linejoin="round"/>
<path d="M252.62,515.96" fill="none" stroke="rgb(17, 17, 17)" stroke-width="8.00" stroke-opacity="1.00" stroke-linejoin="round"/>
<path d="M252.62,515.96 L220.47,497.20" fill="none" stroke="rgb(17, 17, 17)" stroke-width="8.00" stroke-opacity="1.00" stroke-linejoin="round"/>
<path d="M220.47,497.20 C220.47,497.20 220.47,496.82 220.47,496.82" fill="none" stroke="rgb(17, 17, 17)" stroke-width="8.00" stroke-opacity="1.00" stroke-linejoin="round"/>
<path d="M198.47,414.81" fill="none" stroke="rgb(174, 21, 26)" stroke-width="20.00" stroke-opacity="1.00" stroke-linejoin="round"/>
<path d="M279.81,692.06" fill="none" stroke="rgb(174, 21, 26)" stroke-width="25.00" stroke-opacity="1.00" stroke-linejoin="round"/>
<path d="M356.20,568.66" fill="none" stroke="rgb(174, 21, 26)" stroke-width="25.00" stroke-opacity="1.00" stroke-linejoin="round"/>
<path d="M403.21,476.22" fill="none" stroke="rgb(174, 21, 26)" stroke-width="25.00" stroke-opacity="1.00" stroke-linejoin="round"/>
<path d="M428.11,425.06" fill="none" stroke="rgb(174, 21, 26)" stroke-width="25.00" stroke-opacity="1.00" stroke-linejoin="round"/>
<path d="M448.84,379.93" fill="none" stroke="rgb(174, 21, 26)" stroke-width="25.00" stroke-opacity="1.00" stroke-linejoin="round"/>
<path d="M367.12,290.28" fill="none" stroke="rgb(174, 21, 26)" stroke-width="25.00" stroke-opacity="1.00" stroke-linejoin="round"/>
<path d="M347.61,344.56 C347.61,344.56 348.22,344.25 348.22,344.25" fill="none" stroke="rgb(174, 21, 26)" stroke-width="25.00" stroke-opacity="1.00" stroke-linejoin="round"/>
<path d="M323.21,413.47" fill="none" stroke="rgb(174, 21, 26)" stroke-width="25.00" stroke-opacity="1.00" stroke-linejoin="round"/>
<path d="M299.43,538.49" fill="none" stroke="rgb(174, 21, 26)" stroke-width="25.00" stroke-opacity="1.00" stroke-linejoin="round"/>
<path d="M250.64,514.70" fill="none" stroke="rgb(174, 21, 26)" stroke-width="25.00" stroke-opacity="1.00" stroke-linejoin="round"/>
<path d="M262.23,379.93" fill="none" stroke="rgb(174, 21, 26)" stroke-width="25.00" stroke-opacity="1.00" stroke-linejoin="round"/>
<path d="M281.75,305.53" fill="none" stroke="rgb(174, 21, 26)" stroke-width="25.00" stroke-opacity="1.00" stroke-linejoin="round"/>
<path d="M301.26,252.47" fill="none" stroke="rgb(174, 21, 26)" stroke-width="25.00" stroke-opacity="1.00" stroke-linejoin="round"/>
<path d="M248.20,271.38" fill="none" stroke="rgb(174, 21, 26)" stroke-width="25.00" stroke-opacity="1.00" stroke-linejoin="round"/>
<path d="M235.40,314.98" fill="none" stroke="rgb(174, 21, 26)" stroke-width="25.00" stroke-opacity="1.00" stroke-linejoin="round"/>
<path d="M223.81,376.27" fill="none" stroke="rgb(174, 21, 26)" stroke-width="25.00" stroke-opacity="1.00" stroke-linejoin="round"/>
<path d="M216.49,494.58 C216.49,494.58 216.49,495.19 216.49,495.19" fill="none" stroke="rgb(174, 21, 26)" stroke-width="25.00" stroke-opacity="1.00" stroke-linejoin="round"/>
<path d="M235.40,615.33" fill="none" stroke="rgb(174, 21, 26)" stroke-width="25.00" stroke-opacity="1.00" stroke-linejoin="round"/>
<path d="M186.00,541.23" fill="none" stroke="rgb(174, 21, 26)" stroke-width="25.00" stroke-opacity="1.00" stroke-linejoin="round"/>
<path d="M172.58,472.63" fill="none" stroke="rgb(174, 21, 26)" stroke-width="25.00" stroke-opacity="1.00" stroke-linejoin="round"/>
<path d="M835.70,568.64 C835.70,568.64 836.33,568.64 836.33,568.64" fill="none" stroke="rgb(174, 21, 26)" stroke-width="20.00" stroke-opacity="1.00" stroke-linejoin="round"/>
<path d="M766.03,520.94" fill="none" stroke="rgb(174, 21, 26)" stroke-width="20.00" stroke-opacity="1.00" stroke-linejoin="round"/>
<path d="M809.02,488.62" fill="none" stroke="rgb(174, 21, 26)" stroke-width="20.00" stroke-opacity="1.00" stroke-linejoin="round"/>
<path d="M823.77,446.88" fill="none" stroke="rgb(174, 21, 26)" stroke-width="20.00" stroke-opacity="1.00" stroke-linejoin="round"/>
<path d="M820.01,415.81" fill="none" stroke="rgb(174, 21, 26)" stroke-width="20.00" stroke-opacity="1.00" stroke-linejoin="round"/>
<path d="M804.00,402.32" fill="none" stroke="rgb(174, 21, 26)" stroke-width="20.00" stroke-opacity="1.00" stroke-linejoin="round"/>
<path d="M761.64,327.31 C761.64,327.31 761.17,327.63 761.17,327.63" fill="none" stroke="rgb(174, 21, 26)" stroke-width="20.00" stroke-opacity="1.00" stroke-linejoin="round"/>
<path d="M723.04,294.99" fill="none" stroke="rgb(174, 21, 26)" stroke-width="20.00" stroke-opacity="1.00" stroke-linejoin="round"/>
<path d="M677.53,289.65 C677.53,289.65 677.53,290.28 677.53,290.28" fill="none" stroke="rgb(174, 21, 26)" stroke-width="20.00" stroke-opacity="1.00" stroke-linejoin="round"/>
<path d="M709.54,362.46" fill="none" stroke="rgb(174, 21, 26)" stroke-width="20.00" stroke-opacity="1.00" stroke-linejoin="round"/>
<path d="M667.18,355.56" fill="none" stroke="rgb(174, 21, 26)" stroke-width="20.00" stroke-opacity="1.00" stroke-linejoin="round"/>
<path d="M766.03,374.39" fill="none" stroke="rgb(174, 21, 26)" stroke-width="20.00" stroke-opacity="1.00" stroke-linejoin="round"/>
<path d="M679.73,381.60" fill="none" stroke="rgb(174, 21, 26)" stroke-width="20.00" stroke-opacity="1.00" stroke-linejoin="round"/>
<path d="M704.84,411.89" fill="none" stroke="rgb(174, 21, 26)" stroke-width="20.00" stroke-opacity="1.00" stroke-linejoin="round"/>
<path d="M671.88,447.50" fill="none" stroke="rgb(174, 21, 26)" stroke-width="20.00" stroke-opacity="1.00" stroke-linejoin="round"/>
<path d="M707.35,441.07" fill="none" stroke="rgb(174, 21, 26)" stroke-width="20.00" stroke-opacity="1.00" stroke-linejoin="round"/>
<path d="M736.22,456.92" fill="none" stroke="rgb(174, 21, 26)" stroke-width="20.00" stroke-opacity="1.00" stroke-linejoin="round"/>
<path d="M751.91,439.97" fill="none" stroke="rgb(174, 21, 26)" stroke-width="20.00" stroke-opacity="1.00" stroke-linejoin="round"/>
</g>
</svg>
